<mxfile host="Electron" agent="Mozilla/5.0 (Windows NT 10.0; Win64; x64) AppleWebKit/537.36 (KHTML, like Gecko) draw.io/24.7.8 Chrome/128.0.6613.36 Electron/32.0.1 Safari/537.36" version="24.7.8">
  <diagram name="Page-1" id="sQIwyPb-tamyY8MA_HuX">
    <mxGraphModel dx="724" dy="428" grid="1" gridSize="10" guides="1" tooltips="1" connect="1" arrows="1" fold="1" page="1" pageScale="1" pageWidth="850" pageHeight="1100" math="0" shadow="0">
      <root>
        <mxCell id="0" />
        <mxCell id="1" parent="0" />
        <mxCell id="JuEUll7ih0nCOnA0-3_T-1" value="FileAnalyzer" style="swimlane;fontStyle=1;align=center;verticalAlign=top;childLayout=stackLayout;horizontal=1;startSize=26;horizontalStack=0;resizeParent=1;resizeParentMax=0;resizeLast=0;collapsible=1;marginBottom=0;whiteSpace=wrap;html=1;fillColor=default;strokeColor=default;" vertex="1" parent="1">
          <mxGeometry x="280" y="134" width="210" height="140" as="geometry" />
        </mxCell>
        <mxCell id="JuEUll7ih0nCOnA0-3_T-2" value="- Result:&amp;nbsp;&lt;span style=&quot;text-align: center;&quot;&gt;AnalyasisResults&lt;/span&gt;" style="text;strokeColor=none;fillColor=none;align=left;verticalAlign=top;spacingLeft=4;spacingRight=4;overflow=hidden;rotatable=0;points=[[0,0.5],[1,0.5]];portConstraint=eastwest;whiteSpace=wrap;html=1;" vertex="1" parent="JuEUll7ih0nCOnA0-3_T-1">
          <mxGeometry y="26" width="210" height="26" as="geometry" />
        </mxCell>
        <mxCell id="JuEUll7ih0nCOnA0-3_T-3" value="" style="line;strokeWidth=1;fillColor=none;align=left;verticalAlign=middle;spacingTop=-1;spacingLeft=3;spacingRight=3;rotatable=0;labelPosition=right;points=[];portConstraint=eastwest;strokeColor=inherit;" vertex="1" parent="JuEUll7ih0nCOnA0-3_T-1">
          <mxGeometry y="52" width="210" height="8" as="geometry" />
        </mxCell>
        <mxCell id="JuEUll7ih0nCOnA0-3_T-4" value="+ GetAnalysisResult(): AnalysiResult" style="text;strokeColor=none;fillColor=none;align=left;verticalAlign=top;spacingLeft=4;spacingRight=4;overflow=hidden;rotatable=0;points=[[0,0.5],[1,0.5]];portConstraint=eastwest;whiteSpace=wrap;html=1;" vertex="1" parent="JuEUll7ih0nCOnA0-3_T-1">
          <mxGeometry y="60" width="210" height="40" as="geometry" />
        </mxCell>
        <mxCell id="JuEUll7ih0nCOnA0-3_T-28" value="+ SetAnalysisResult(AnalysisResult)" style="text;strokeColor=none;fillColor=none;align=left;verticalAlign=top;spacingLeft=4;spacingRight=4;overflow=hidden;rotatable=0;points=[[0,0.5],[1,0.5]];portConstraint=eastwest;whiteSpace=wrap;html=1;" vertex="1" parent="JuEUll7ih0nCOnA0-3_T-1">
          <mxGeometry y="100" width="210" height="40" as="geometry" />
        </mxCell>
        <mxCell id="JuEUll7ih0nCOnA0-3_T-5" value="AnalyasisResults" style="swimlane;fontStyle=1;align=center;verticalAlign=top;childLayout=stackLayout;horizontal=1;startSize=26;horizontalStack=0;resizeParent=1;resizeParentMax=0;resizeLast=0;collapsible=1;marginBottom=0;whiteSpace=wrap;html=1;" vertex="1" parent="1">
          <mxGeometry x="560" y="122" width="160" height="138" as="geometry" />
        </mxCell>
        <mxCell id="JuEUll7ih0nCOnA0-3_T-6" value="+ WordCount: int" style="text;strokeColor=none;fillColor=none;align=left;verticalAlign=top;spacingLeft=4;spacingRight=4;overflow=hidden;rotatable=0;points=[[0,0.5],[1,0.5]];portConstraint=eastwest;whiteSpace=wrap;html=1;" vertex="1" parent="JuEUll7ih0nCOnA0-3_T-5">
          <mxGeometry y="26" width="160" height="26" as="geometry" />
        </mxCell>
        <mxCell id="JuEUll7ih0nCOnA0-3_T-9" value="+ CharachterCount: int" style="text;strokeColor=none;fillColor=none;align=left;verticalAlign=top;spacingLeft=4;spacingRight=4;overflow=hidden;rotatable=0;points=[[0,0.5],[1,0.5]];portConstraint=eastwest;whiteSpace=wrap;html=1;" vertex="1" parent="JuEUll7ih0nCOnA0-3_T-5">
          <mxGeometry y="52" width="160" height="26" as="geometry" />
        </mxCell>
        <mxCell id="JuEUll7ih0nCOnA0-3_T-10" value="+ LineCount: int" style="text;strokeColor=none;fillColor=none;align=left;verticalAlign=top;spacingLeft=4;spacingRight=4;overflow=hidden;rotatable=0;points=[[0,0.5],[1,0.5]];portConstraint=eastwest;whiteSpace=wrap;html=1;" vertex="1" parent="JuEUll7ih0nCOnA0-3_T-5">
          <mxGeometry y="78" width="160" height="26" as="geometry" />
        </mxCell>
        <mxCell id="JuEUll7ih0nCOnA0-3_T-11" value="+ FieldCount: int" style="text;strokeColor=none;fillColor=none;align=left;verticalAlign=top;spacingLeft=4;spacingRight=4;overflow=hidden;rotatable=0;points=[[0,0.5],[1,0.5]];portConstraint=eastwest;whiteSpace=wrap;html=1;" vertex="1" parent="JuEUll7ih0nCOnA0-3_T-5">
          <mxGeometry y="104" width="160" height="26" as="geometry" />
        </mxCell>
        <mxCell id="JuEUll7ih0nCOnA0-3_T-7" value="" style="line;strokeWidth=1;fillColor=none;align=left;verticalAlign=middle;spacingTop=-1;spacingLeft=3;spacingRight=3;rotatable=0;labelPosition=right;points=[];portConstraint=eastwest;strokeColor=inherit;" vertex="1" parent="JuEUll7ih0nCOnA0-3_T-5">
          <mxGeometry y="130" width="160" height="8" as="geometry" />
        </mxCell>
        <mxCell id="JuEUll7ih0nCOnA0-3_T-24" style="rounded=0;orthogonalLoop=1;jettySize=auto;html=1;dashed=1;endArrow=block;endFill=0;entryX=0.25;entryY=1;entryDx=0;entryDy=0;" edge="1" parent="1" source="JuEUll7ih0nCOnA0-3_T-12" target="JuEUll7ih0nCOnA0-3_T-20">
          <mxGeometry relative="1" as="geometry">
            <mxPoint x="90" y="290" as="targetPoint" />
          </mxGeometry>
        </mxCell>
        <mxCell id="JuEUll7ih0nCOnA0-3_T-12" value="TxtFileAnalyzer" style="swimlane;fontStyle=1;align=center;verticalAlign=top;childLayout=stackLayout;horizontal=1;startSize=26;horizontalStack=0;resizeParent=1;resizeParentMax=0;resizeLast=0;collapsible=1;marginBottom=0;whiteSpace=wrap;html=1;" vertex="1" parent="1">
          <mxGeometry x="155" y="370" width="160" height="86" as="geometry" />
        </mxCell>
        <mxCell id="JuEUll7ih0nCOnA0-3_T-13" value="+ field: type" style="text;strokeColor=none;fillColor=none;align=left;verticalAlign=top;spacingLeft=4;spacingRight=4;overflow=hidden;rotatable=0;points=[[0,0.5],[1,0.5]];portConstraint=eastwest;whiteSpace=wrap;html=1;" vertex="1" parent="JuEUll7ih0nCOnA0-3_T-12">
          <mxGeometry y="26" width="160" height="26" as="geometry" />
        </mxCell>
        <mxCell id="JuEUll7ih0nCOnA0-3_T-14" value="" style="line;strokeWidth=1;fillColor=none;align=left;verticalAlign=middle;spacingTop=-1;spacingLeft=3;spacingRight=3;rotatable=0;labelPosition=right;points=[];portConstraint=eastwest;strokeColor=inherit;" vertex="1" parent="JuEUll7ih0nCOnA0-3_T-12">
          <mxGeometry y="52" width="160" height="8" as="geometry" />
        </mxCell>
        <mxCell id="JuEUll7ih0nCOnA0-3_T-15" value="+ method(type): type" style="text;strokeColor=none;fillColor=none;align=left;verticalAlign=top;spacingLeft=4;spacingRight=4;overflow=hidden;rotatable=0;points=[[0,0.5],[1,0.5]];portConstraint=eastwest;whiteSpace=wrap;html=1;" vertex="1" parent="JuEUll7ih0nCOnA0-3_T-12">
          <mxGeometry y="60" width="160" height="26" as="geometry" />
        </mxCell>
        <mxCell id="JuEUll7ih0nCOnA0-3_T-25" style="rounded=0;orthogonalLoop=1;jettySize=auto;html=1;entryX=0.75;entryY=1;entryDx=0;entryDy=0;dashed=1;endArrow=block;endFill=0;" edge="1" parent="1" source="JuEUll7ih0nCOnA0-3_T-16" target="JuEUll7ih0nCOnA0-3_T-20">
          <mxGeometry relative="1" as="geometry" />
        </mxCell>
        <mxCell id="JuEUll7ih0nCOnA0-3_T-27" style="rounded=0;orthogonalLoop=1;jettySize=auto;html=1;entryX=0.782;entryY=1.067;entryDx=0;entryDy=0;entryPerimeter=0;" edge="1" parent="1" source="JuEUll7ih0nCOnA0-3_T-16" target="JuEUll7ih0nCOnA0-3_T-28">
          <mxGeometry relative="1" as="geometry">
            <mxPoint x="390" y="270" as="targetPoint" />
          </mxGeometry>
        </mxCell>
        <mxCell id="JuEUll7ih0nCOnA0-3_T-16" value="CSVFileAnalyzer" style="swimlane;fontStyle=1;align=center;verticalAlign=top;childLayout=stackLayout;horizontal=1;startSize=26;horizontalStack=0;resizeParent=1;resizeParentMax=0;resizeLast=0;collapsible=1;marginBottom=0;whiteSpace=wrap;html=1;" vertex="1" parent="1">
          <mxGeometry x="430" y="380" width="160" height="86" as="geometry" />
        </mxCell>
        <mxCell id="JuEUll7ih0nCOnA0-3_T-17" value="+ field: type" style="text;strokeColor=none;fillColor=none;align=left;verticalAlign=top;spacingLeft=4;spacingRight=4;overflow=hidden;rotatable=0;points=[[0,0.5],[1,0.5]];portConstraint=eastwest;whiteSpace=wrap;html=1;" vertex="1" parent="JuEUll7ih0nCOnA0-3_T-16">
          <mxGeometry y="26" width="160" height="26" as="geometry" />
        </mxCell>
        <mxCell id="JuEUll7ih0nCOnA0-3_T-18" value="" style="line;strokeWidth=1;fillColor=none;align=left;verticalAlign=middle;spacingTop=-1;spacingLeft=3;spacingRight=3;rotatable=0;labelPosition=right;points=[];portConstraint=eastwest;strokeColor=inherit;" vertex="1" parent="JuEUll7ih0nCOnA0-3_T-16">
          <mxGeometry y="52" width="160" height="8" as="geometry" />
        </mxCell>
        <mxCell id="JuEUll7ih0nCOnA0-3_T-19" value="+ method(type): type" style="text;strokeColor=none;fillColor=none;align=left;verticalAlign=top;spacingLeft=4;spacingRight=4;overflow=hidden;rotatable=0;points=[[0,0.5],[1,0.5]];portConstraint=eastwest;whiteSpace=wrap;html=1;" vertex="1" parent="JuEUll7ih0nCOnA0-3_T-16">
          <mxGeometry y="60" width="160" height="26" as="geometry" />
        </mxCell>
        <mxCell id="JuEUll7ih0nCOnA0-3_T-20" value="«interface»&lt;br&gt;&lt;b&gt;IFile&lt;/b&gt;&lt;span style=&quot;font-weight: 700;&quot;&gt;Analysis&lt;/span&gt;&lt;div&gt;&lt;span style=&quot;font-weight: 700;&quot;&gt;&lt;br&gt;&lt;/span&gt;&lt;/div&gt;&lt;div&gt;&lt;span style=&quot;font-weight: 700;&quot;&gt;AnalyzeFile(file)&lt;/span&gt;&lt;/div&gt;" style="html=1;whiteSpace=wrap;" vertex="1" parent="1">
          <mxGeometry x="70" y="164" width="115" height="60" as="geometry" />
        </mxCell>
        <mxCell id="JuEUll7ih0nCOnA0-3_T-21" value="" style="line;strokeWidth=1;fillColor=none;align=left;verticalAlign=middle;spacingTop=-1;spacingLeft=3;spacingRight=3;rotatable=0;labelPosition=right;points=[];portConstraint=eastwest;strokeColor=inherit;" vertex="1" parent="1">
          <mxGeometry x="70" y="200" width="115" height="8" as="geometry" />
        </mxCell>
        <mxCell id="JuEUll7ih0nCOnA0-3_T-26" style="rounded=0;orthogonalLoop=1;jettySize=auto;html=1;entryX=0.265;entryY=1.081;entryDx=0;entryDy=0;entryPerimeter=0;" edge="1" parent="1" source="JuEUll7ih0nCOnA0-3_T-12" target="JuEUll7ih0nCOnA0-3_T-28">
          <mxGeometry relative="1" as="geometry">
            <mxPoint x="230" y="320" as="targetPoint" />
          </mxGeometry>
        </mxCell>
      </root>
    </mxGraphModel>
  </diagram>
</mxfile>
